Patient4_TMGait_0pt7_02_right_12_EMG.mot
version=1
nRows=40
nColumns=33
inDegrees=no
endheader
time	1LAddLong	2LGlutMax	3LGlutMed	4LIliopsoas	5LSemiMemb	6LBicFemLong	7LRecFem	8LVastMed	9LVastLat	10LGasMed	11LTibAnt	12lTibPost	13LPeroneusLong	14LSol	15LExtDigLong	16LFlexDigLong	17RAddLong	18RGlutMax	19RGlutMed	20RIliopsoas	21RSemiMemb	22RBicFemLong	23RRecFem	24RVastMed	25RVastLat	26RGasMed	27RTibAnt	28RTibPost	29RPeroneusLong	30RSol	31RExtDigLong	32RFlexDigLong
12.82	-0.027008	-0.084991	0.07309	-0.003662	-0.062866	-0.31616	-0.030365	0.005188	0.039825	0.005493	-0.25879	0.030975	0.24231	-0.050964	0.66666	0.001831	-0.010681	-0.12833	0.17731	-0.050659	-0.050049	0.014038	0.56656	-0.17044	-0.06546	-0.012207	0.19898	-0.010071	0.03479	-0.014191	0.002136	-0.002136
12.821	-0.027008	-0.099945	0.026398	0.017242	-0.065613	-0.2446	-0.019836	0.01358	0.041809	0.009918	-0.1445	0.035706	0.10254	-0.078735	0.20599	-0.022125	-0.13794	-0.18387	0.23438	-0.015411	-0.031586	0.032806	0.42877	-0.18585	-0.063477	-0.00824	0.42358	-0.007782	-0.30899	-0.072479	-0.001678	-0.00885
12.822	-0.021515	-0.11032	0.24307	0.028534	-0.07843	-0.12451	0.033875	0.010223	0.042877	-0.01297	-0.044556	0.024567	0.046387	0.11307	-0.083618	-0.002441	-0.24277	-0.19623	0.22766	0.054321	-0.038147	0.029755	0.10529	-0.23239	-0.046539	-0.006561	-0.20691	-0.008087	-0.26977	-0.090485	-0.002441	-0.007019
12.823	-0.012054	-0.12497	-0.028839	0.009308	-0.058441	0.040741	0.061798	0.001831	0.053253	-0.031586	-0.020294	0.020447	-0.54214	0.071716	-0.18478	-0.003204	-0.31296	-0.19348	0.19653	0.11887	-0.045624	0.041504	-0.003357	-0.23834	-0.026855	0	-0.9407	-0.003967	-0.095367	-0.031281	-0.00351	-0.003357
12.824	0.005188	-0.15457	-0.12512	0.001678	0.035858	0.11734	0.093689	-0.004272	0.083771	-0.10147	0.13748	0.016479	-0.18097	0.040283	-0.46356	-0.021973	-0.31891	-0.21255	0.17334	0.11536	-0.045013	0.056152	-0.057526	-0.29251	-0.019379	0.009155	-0.79819	-0.005646	0.15503	-0.000458	-0.007019	-0.006561
12.825	0.031128	-0.16785	0.014343	-0.00473	0.086975	0.039063	0.13016	-0.005798	0.05722	-0.15915	0.26535	0.026093	-0.16495	0.11047	-0.2359	-0.02243	-0.25192	-0.17761	0.15121	0.001221	-0.018005	0.028992	-0.19486	-0.37582	-0.00946	-0.005493	-0.336	-0.003815	0.068207	-0.055084	-0.000916	-0.012512
12.826	0.020142	-0.17136	-0.021057	-0.001221	0.065308	-0.054016	0.14236	-0.003052	0.004578	-0.064087	0.14511	0.020294	-0.17639	0.045471	-0.47073	-0.033875	-0.1767	-0.177	0.19211	-0.08316	-0.009308	0.025635	-0.19073	-0.27252	-0.043335	-0.003967	-0.024567	0.000458	-0.16693	-0.0383	-0.001831	-0.01236
12.827	0.001526	-0.21469	-0.033264	-0.00351	0.019684	-0.13626	0.13733	0.005646	-0.016174	0.03479	0.055695	0.020905	-0.13153	-0.10056	-0.55374	-0.017242	-0.16632	-0.16266	0.21454	-0.10361	0.000916	0.038605	-0.27054	-0.15213	-0.054779	0.00412	0.046539	0.000763	-0.1236	-0.094299	-0.009613	-0.008392
12.828	0.011749	-0.2829	0.036926	-0.014801	-0.040741	0.054321	0.13397	0.003662	-0.034332	0.075836	0.034485	0.018158	0.18616	-0.11566	-0.39261	-0.032043	-0.11398	-0.20676	0.14557	-0.1001	0.007935	0.050049	-0.13992	-0.20096	-0.032806	0.004272	-0.24902	0	0.0354	-0.20111	-0.002441	-0.004272
12.829	-0.014954	-0.3389	-0.016174	-0.00061	-0.0914	0.18845	0.15076	0.007477	-0.058441	0.056305	-0.1265	0.011139	0.39505	-0.29388	-0.20813	-0.031281	-0.10056	-0.22492	0.098114	0.042572	0.012665	0.061646	0.023956	-0.1741	-0.036316	0.00412	-0.27039	-0.000305	0.023956	-0.19608	-0.002289	0.000153
12.83	-0.019989	-0.3772	-0.05127	0.041199	-0.056152	0.19882	0.062408	0.018463	-0.039673	0.042877	-0.061798	0.014191	0.015564	-0.26855	-0.004272	-0.013428	-0.10864	-0.20966	-0.24658	0.10819	0.001526	0.055847	-0.027466	-0.041046	-0.02655	0.000763	-0.073547	-0.002136	-0.063171	-0.069733	-0.004578	-0.00351
12.831	0.007172	-0.39429	-0.10864	0.009613	-0.029144	0.2121	-0.072784	0.012207	-0.005646	0.025482	-0.010834	0.012665	0.054626	-0.08316	0.70343	-0.008392	-0.13092	-0.17425	-0.57587	0.13123	0.001984	0.052948	0.12131	0.031128	-0.040436	0.00412	-0.1239	-0.000916	0.081482	-0.034943	0.006256	0.000763
12.832	0.007324	-0.40817	-0.20294	-0.007324	-0.034332	-0.000153	-0.1236	-0.003052	0.054626	-0.004272	0.009918	0.017395	0.11185	0.02182	0.084991	-0.000153	-0.13428	-0.16617	-0.28473	-0.037231	-0.00824	0.070496	0.035248	0.1532	-0.016785	0.012512	0.1268	-0.007782	0.31601	-0.075989	-0.003204	0.00061
12.833	0.020142	-0.38666	-0.1329	-0.032959	0	-0.11231	-0.025482	-0.020599	0.13992	-0.010529	0.041199	0.010376	-0.31799	0.059814	0.003815	0.005798	-0.11765	-0.083008	0.75851	-0.35553	0.003815	0.055389	-0.112	0.17639	0.008545	0.008392	0.53894	-0.006866	0.34576	-0.063782	-0.00412	-0.005035
12.834	0.021667	-0.36362	0.048676	0.005493	0.087128	-0.055847	0.068359	-0.011292	0.1059	0.032654	-0.096436	0.015411	0.16769	0.019836	-0.16174	0.001373	-0.103	-0.058136	0.91339	-0.42206	0.008698	0.07019	-0.19302	0.10971	0.028381	0.006104	0.72952	-0.002899	-0.19424	-0.050354	-0.005798	-0.014496
12.835	0.009003	-0.36545	0.13489	0.037231	0.12924	-0.057983	0.10391	0.005035	0.027313	0.001373	-0.10788	0.020294	0.1593	-0.039673	-0.33157	-0.003662	-0.065308	-0.0737	1.012	-0.22873	0.016937	0.058746	-0.14114	0.16556	0.006561	0	0.52765	-0.003967	-0.45319	-0.046234	-0.006104	-0.004578
12.836	0.007477	-0.36758	0.081024	0.058899	0.084381	-0.16769	0.098572	0.014038	0.011444	-0.048218	-0.067902	0.005798	0.75226	-0.048218	0.089264	0	-0.032959	-0.11093	1.2439	-0.007477	0.014038	0.063782	-0.14755	0.14587	0.019684	-0.002441	0.46448	-0.008545	-0.13763	0.037384	-0.005035	-0.004272
12.837	0.006409	-0.39581	-0.010529	0.008087	0.002136	-0.20371	0.051575	0.00473	0.079193	-0.053101	0.02243	0.00946	0.069427	-0.14587	0.15503	-0.010834	-0.013123	-0.16083	0.6221	0.15808	0.019836	0.04425	-0.077362	0.088654	0.018463	-0.001068	0.4126	-0.00412	-0.07782	0.092621	-0.004883	-0.007172
12.838	0.005646	-0.3508	0.033875	0.006104	-0.020142	-0.16861	0.02182	0.000763	0.093689	-0.09079	0.1796	0.006256	-0.19989	-0.051727	-0.19714	-0.025787	-0.018158	-0.15884	0.58121	0.17899	0.023041	0.044861	0.12466	0.1265	0.044098	-0.001678	0.23972	-0.005341	-0.094452	0.034027	-0.004272	-0.01358
12.839	0.006409	-0.34729	-0.075073	-0.02182	-0.002289	-0.10971	0.00412	0.009918	0.02533	-0.038147	0.23575	0.019379	-0.21225	-0.035095	-0.19745	-0.024567	-0.029297	-0.16007	0.58701	0.18402	0.043488	0.022736	0.27679	0.12024	0.046539	-0.00351	-0.23025	-0.001373	0.061951	0.066376	-0.003815	-0.01236
12.84	-0.005798	-0.32913	0.007019	-0.019226	0.031281	-0.084686	0.041351	0.006714	-0.0177	-0.041809	0.23926	-0.000916	0.068054	0.00946	0.79666	-0.014496	0.000916	-0.15869	0.33524	0.14313	0.065002	0.022278	0.42816	0.12344	0.028839	-0.004883	-0.18524	-0.009308	0.22751	0.072174	-0.003052	-0.008087
12.841	-0.010223	-0.31357	0.06012	-0.008087	0.026093	-0.061798	0.035553	-0.003052	-0.058746	-0.0177	0.24582	0.000916	-0.093842	0.025177	-0.1152	0.005035	0.021057	-0.1181	0.2626	0.066528	0.062561	0.001984	0.5513	0.12741	0.020294	-0.005188	-0.14893	-0.001984	0.29846	-0.000153	-0.002136	-0.001678
12.842	0.001068	-0.31479	-0.014496	0.003815	0.019989	-0.026855	0.050201	-0.011444	-0.066833	-0.028687	0.08606	0.006104	-0.021515	-0.018921	0.10239	0.005798	0.036621	-0.19852	0.3865	0.00351	0.030975	0.038452	0.62118	0.0383	0.015411	0.002136	-0.32638	-0.015106	0.032196	-0.059204	-0.004425	-0.005035
12.843	0.005493	-0.28702	-0.039063	-0.012512	-0.001984	-0.00946	0.019379	-0.002899	-0.053864	-0.052338	0.03006	0.009308	0.24597	0.049438	0.02533	0.005341	0.045776	-0.16617	0.37735	-0.014191	-0.02533	0.056458	0.4953	0.003662	0.00412	0.005798	-0.087433	-0.001831	-0.24338	-0.10178	-0.006866	-0.003357
12.844	0.014343	-0.28061	0.051575	-0.024109	-0.019836	-0.007629	-0.046539	0.01358	0.018463	-0.033112	-0.12985	0.00412	0.30487	0.067291	0.10254	0.001678	0.03891	-0.21225	0.41672	-0.040741	-0.098267	0.09201	0.33737	-0.020905	0.003357	0.004578	-0.10834	-0.005341	0.11673	-0.032349	-0.003052	0.000305
12.845	0.017853	-0.28015	-0.001221	-0.01709	-0.017242	-0.068817	0.037537	0.013733	0.086823	-0.03479	-0.26489	0.006866	-0.08728	0.12634	-0.065613	-0.002289	0.014496	-0.24475	0.37018	-0.041504	-0.051575	0.065765	0.16876	-0.00824	-0.028076	-0.010071	0.004272	-0.002136	0.17654	0.13733	-0.000916	0.000305
12.846	0.00946	-0.28748	-0.033264	0.00412	-0.008698	-0.070496	0.13382	0.008545	0.15717	-0.051422	-0.27802	0.003357	-0.007782	0.112	-0.016632	0.019531	-0.006104	-0.27329	0.25818	-0.0914	-0.023651	0.048065	0.20584	-0.037079	-0.015717	-0.008545	0.31174	-0.00946	0.1416	0.18921	-0.002899	-0.000305
12.847	0.000458	-0.23605	-0.059967	-0.007019	-0.002594	-0.028839	0.19134	0.009003	0.081024	-0.014038	-0.15457	0.007629	-0.1886	-0.002594	-0.089417	0.003204	-0.010376	-0.20309	0.26581	-0.1268	0.008392	0.061188	0.11551	-0.063934	-0.026398	-0.003662	0.21408	-0.003662	-0.20447	0.02533	-0.000916	0.005035
12.848	-0.001831	-0.18158	0.061035	0.046234	-0.001831	0.045166	0.17624	0.007782	-0.058594	0.014648	-0.027618	0.005188	-0.42572	-0.058441	-0.2385	0.009918	-0.026703	-0.18814	0.28763	-0.059967	-0.018005	0.072784	-0.015717	-0.067749	-0.033417	-0.003052	0.21439	-0.006256	-0.41031	-0.089111	-0.003357	0.007477
12.849	0.000305	-0.22232	-0.034332	0.08194	0.006256	0.059662	0.08316	0.005493	-0.037079	-0.02243	0.11887	0.007477	-0.03891	0.13367	0.19043	0.019073	-0.029449	-0.20309	0.40237	0.07431	0.000916	0.055542	-0.1062	-0.16098	-0.026855	-0.001221	-0.025482	-0.003204	-0.40405	-0.12054	0.000458	-0.002136
12.85	-0.012817	-0.25467	-0.20905	0.001068	0.014343	0.088348	0.12192	0.018921	-0.033569	-0.026398	0.19363	0.010986	0.18417	0.14954	0.40436	0.020599	-0.056152	-0.24674	-0.006256	0.15472	-0.005035	0.03952	0.090332	-0.13153	-0.029755	-0.00351	-0.16357	-0.004272	0.40314	-0.054779	-0.00351	0.00824
12.851	-0.010223	-0.18188	-0.11414	0.019531	0.004425	0.047455	0.033417	0.033569	-0.043793	-0.022125	0.097198	0.010376	0.13992	0.17273	0.30395	0.009003	-0.057831	-0.18082	-0.16312	0.2298	-0.015564	0.069122	0.13779	-0.076752	-0.032654	-0.004425	-0.12558	-0.00351	0.40848	-0.054169	0.000153	0.002594
12.852	-0.005188	-0.15396	-0.045929	0.018158	-0.012054	0.041351	-0.059509	0.028534	0.000916	-0.04715	-0.21103	0.014191	0.22476	0.21668	0.16724	0.004272	-0.052338	-0.039673	0.14374	0.30945	-0.009003	0.058899	0.1442	-0.11231	-0.020905	0.000916	-0.019684	-0.003967	-0.10086	0.020905	0	-0.004883
12.853	-0.001373	-0.12375	-0.1619	0.021515	-0.057983	0.047607	-0.11673	0.02182	0.04364	-0.026703	-0.17059	0.01358	0.21316	0.20584	-0.31235	-0.010681	-0.037994	-0.001526	0.55008	0.24078	-0.009003	0.091553	0.10544	-0.033569	-0.000916	0.008698	-0.021057	-0.005341	-0.31403	-0.021057	0.000305	0.001221
12.854	0.012054	-0.12985	-0.10849	0.005798	-0.05661	0.052643	-0.11765	0.037689	0.09964	-0.001068	-0.17639	0.00946	0.48035	-0.065002	-0.47318	-0.01236	-0.019226	-0.039825	0.87524	0.1767	-0.014038	0.10803	0.074158	-0.007782	0.014343	0.010834	-0.04303	-0.000458	-0.35202	-0.034943	-0.002441	0.000763
12.855	0	-0.11276	0.004578	-0.009155	-0.03952	0.023346	-0.047913	-0.011444	0.15549	0.050964	-0.16586	0.005646	0.28351	-0.12207	-0.074158	-0.016022	-0.000916	-0.10727	1.0497	0.027618	-0.018158	0.09903	-0.15213	0.006866	0.037994	0.015869	-0.04837	-0.008698	-0.077057	-0.077972	-0.000916	0.005493
12.856	0.014038	-0.080872	0.018463	-0.020599	0.006714	0.003967	-0.001068	-0.026703	0.17258	0.068512	0.029755	0.010223	-0.17288	-0.14771	0.015259	-0.01236	0.000305	-0.18173	0.88592	-0.066528	-0.015564	0.092926	-0.42084	-0.037384	0.012207	0.006104	0.027924	-0.000916	0.11108	-0.1265	-0.002747	-0.008545
12.857	0.021973	-0.078583	-0.052948	-0.057983	0.022736	0.012817	-0.002594	-0.039368	0.12436	0.076447	0.23407	0.011139	-0.52872	-0.2385	-0.10651	-0.000763	-0.0177	-0.25528	0.54657	-0.055389	0.074005	0.082397	-0.47791	-0.096283	0.002747	-0.005341	0.45624	-0.002594	0.015869	-0.10452	-0.001221	-0.008392
12.858	0.018158	-0.050354	-0.06546	-0.030212	0.019379	-0.009308	-0.035706	-0.033112	0.13382	0.041809	0.37308	0.008545	-0.2002	-0.23987	0.061188	-0.001526	-0.02533	-0.22308	0.30411	-0.041199	0.094757	0.06958	-0.40573	-0.11932	-0.007172	-0.005035	0.87616	-0.001984	-0.025177	-0.039825	-0.001526	-0.00824
12.859	0.009308	-0.046387	0.12528	0.016479	0.00824	-0.00824	-0.005035	-0.020905	0.040436	-0.046997	0.014343	-0.00473	0.27268	-0.049286	-0.0354	0.004425	-0.010376	-0.19012	-0.028687	-0.020752	0.096588	-0.006714	-0.31418	-0.1799	-0.018005	-0.009003	1.1261	-0.006104	-0.023956	-0.074463	-0.003815	0.001984
